<svg width="57" height="57" viewBox="0 0 57 57" fill="none" xmlns="http://www.w3.org/2000/svg">
<rect width="57" height="57" fill="white"/>
<path d="M13.4291 29C13.4291 28.5662 13.2714 28.3198 12.9559 28.2606C12.8573 28.2409 12.7587 28.231 12.6602 28.231H11.0926V20.2751H20.1724V28.231H17.8064V29H25.0525C25.0525 28.5662 24.8947 28.3198 24.5792 28.2606C24.4807 28.2409 24.3821 28.231 24.2835 28.231H22.716V12.0234H25.0525V11.2545H17.8064V12.0234H20.1724V19.4174H11.0926V12.0234H13.4291V11.2545H6.18304V12.0234H8.54911V28.231H6.18304V29H13.4291ZM33.1858 28.2606H31.707V16.4302H27.1228V17.1696H29.4888V26.486C29.4888 27.393 29.1832 27.9451 28.572 28.1423C28.2762 28.2212 27.7932 28.2606 27.1228 28.2606V29H33.9252C33.9252 28.5662 33.7773 28.3296 33.4816 28.2902C33.383 28.2705 33.2844 28.2606 33.1858 28.2606ZM32.0619 12.1122C32.0619 11.4221 31.7563 10.9291 31.1451 10.6334C30.9085 10.5348 30.6817 10.4855 30.4648 10.4855C29.7747 10.4855 29.2818 10.801 28.986 11.4319C28.8875 11.6488 28.8382 11.8756 28.8382 12.1122C28.8382 12.8417 29.1635 13.3445 29.8142 13.6205C30.0311 13.6994 30.248 13.7388 30.4648 13.7388C31.1549 13.7388 31.638 13.4234 31.9141 12.7924C32.0126 12.5755 32.0619 12.3488 32.0619 12.1122Z" fill="#FF6828"/>
<path d="M5.92969 33.3875H8.08984C9.52995 33.3875 10.4578 33.8141 10.8734 34.6672C11.0229 34.9807 11.0977 35.3526 11.0977 35.7828C11.0977 36.213 11.0211 36.5813 10.868 36.8875C10.7148 37.1938 10.5089 37.4453 10.25 37.6422C9.74687 38.0214 9.07422 38.2109 8.23203 38.2109H7.02344V41H5.92969V33.3875ZM8.01875 37.3359C8.67865 37.3359 9.16719 37.2083 9.48437 36.9531C9.80156 36.6979 9.96016 36.3005 9.96016 35.7609C9.96016 35.0427 9.62656 34.5797 8.95937 34.3719C8.72604 34.299 8.44349 34.2625 8.11172 34.2625H7.02344V37.3359H8.01875ZM12.4703 33.3875H14.6305C16.0706 33.3875 16.9984 33.8141 17.4141 34.6672C17.5635 34.9807 17.6383 35.3344 17.6383 35.7281C17.6383 36.1182 17.5854 36.4482 17.4797 36.718C17.3776 36.9878 17.2336 37.2193 17.0477 37.4125C16.6904 37.7844 16.1982 38.0286 15.5711 38.1453C15.8299 38.9438 16.2693 39.4943 16.8891 39.7969C17.0932 39.899 17.2646 39.9536 17.4031 39.9609C17.6365 39.9682 17.8005 39.9609 17.8953 39.9391V41H17.6492C16.8289 41 16.1307 40.7083 15.5547 40.125C15.0479 39.6182 14.707 38.9802 14.532 38.2109H13.5641V41H12.4703V33.3875ZM14.5594 37.3359C15.2193 37.3359 15.7078 37.2083 16.025 36.9531C16.3422 36.6979 16.5008 36.3005 16.5008 35.7609C16.5008 35.0427 16.1672 34.5797 15.5 34.3719C15.2667 34.299 14.9841 34.2625 14.6523 34.2625H13.5641V37.3359H14.5594ZM21.4391 33.3875H22.1883L25.3984 41H24.2609L23.4898 39.0859H20.1102L19.3445 41H18.2289L21.4391 33.3875ZM23.1398 38.2109L21.8055 34.875L20.4656 38.2109H23.1398ZM26.3938 33.393H28.2422C29.4891 33.393 30.4771 33.701 31.2063 34.3172C31.9938 34.9771 32.3875 35.9396 32.3875 37.2047C32.3875 38.4698 32.0047 39.4305 31.2391 40.0867C30.5245 40.6956 29.5438 41 28.2969 41H26.3938V33.393ZM31.2664 37.2102C31.2664 35.2523 30.2346 34.2734 28.1711 34.2734H27.4875V40.125H28.2313C29.8063 40.125 30.7651 39.5563 31.1078 38.4188C31.2135 38.0578 31.2664 37.6549 31.2664 37.2102ZM33.8641 33.3875H38.7805V34.3391H34.9578V36.5813H37.8508V37.5H34.9578V40.0375H38.7805V41H33.8641V33.3875ZM40.4047 33.3875H45.3211V34.3391H41.4984V36.5813H44.3914V37.5H41.4984V40.0375H45.3211V41H40.4047V33.3875ZM47.0328 33.3875H49.193C50.6331 33.3875 51.5609 33.8141 51.9766 34.6672C52.126 34.9807 52.2008 35.3526 52.2008 35.7828C52.2008 36.213 52.1242 36.5813 51.9711 36.8875C51.818 37.1938 51.612 37.4453 51.3531 37.6422C50.85 38.0214 50.1773 38.2109 49.3352 38.2109H48.1266V41H47.0328V33.3875ZM49.1219 37.3359C49.7818 37.3359 50.2703 37.2083 50.5875 36.9531C50.9047 36.6979 51.0633 36.3005 51.0633 35.7609C51.0633 35.0427 50.7297 34.5797 50.0625 34.3719C49.8292 34.299 49.5466 34.2625 49.2148 34.2625H48.1266V37.3359H49.1219Z" fill="#0B0B0B"/>
</svg>
